<svg width="30" height="30" viewBox="0 0 30 30" fill="none" xmlns="http://www.w3.org/2000/svg">
<path d="M25.121 17.9116L25.3624 15.5434C25.4911 14.2798 25.5761 13.4455 25.5094 12.9198L25.5327 12.9199C26.623 12.9199 27.5069 11.9869 27.5069 10.8361C27.5069 9.68517 26.623 8.7522 25.5327 8.7522C24.4424 8.7522 23.5585 9.68517 23.5585 10.8361C23.5585 11.3565 23.7393 11.8325 24.0382 12.1977C23.6091 12.4772 23.0481 13.0671 22.2036 13.9551L22.2036 13.9551C21.553 14.6392 21.2277 14.9812 20.8648 15.0341C20.6638 15.0635 20.4589 15.0333 20.2732 14.947C19.9382 14.7913 19.7147 14.3684 19.2679 13.5228L16.9127 9.06533C16.6371 8.54364 16.4064 8.107 16.1984 7.75563C17.0517 7.2961 17.636 6.35963 17.636 5.2791C17.636 3.74459 16.4575 2.50063 15.0038 2.50063C13.55 2.50063 12.3715 3.74459 12.3715 5.2791C12.3715 6.35963 12.9559 7.2961 13.8092 7.75563C13.6011 8.10702 13.3705 8.54359 13.0948 9.06533L10.7396 13.5228C10.2928 14.3684 10.0694 14.7913 9.73429 14.947C9.54863 15.0333 9.34376 15.0635 9.14269 15.0341C8.7798 14.9812 8.45451 14.6392 7.80393 13.9551C6.95946 13.0672 6.3984 12.4772 5.9693 12.1977C6.2682 11.8325 6.44899 11.3565 6.44899 10.8361C6.44899 9.68517 5.56512 8.7522 4.47481 8.7522C3.3845 8.7522 2.50063 9.68517 2.50063 10.8361C2.50063 11.9869 3.3845 12.9199 4.47481 12.9199L4.49812 12.9198C4.4314 13.4455 4.51642 14.2798 4.64517 15.5434L4.88649 17.9116C5.02044 19.2261 5.13183 20.4769 5.26826 21.6026H24.7393C24.8757 20.4769 24.9871 19.2261 25.121 17.9116Z" fill="#791A79"/>
<path d="M13.5719 27.5069H16.4356C20.168 27.5069 22.0343 27.5069 23.2794 26.3304C23.8229 25.817 24.1671 24.8912 24.4154 23.6865H5.59214C5.84048 24.8912 6.18462 25.817 6.7281 26.3304C7.97328 27.5069 9.83949 27.5069 13.5719 27.5069Z" fill="#791A79"/>
</svg>
