<svg width="30" height="30" viewBox="0 0 30 30" fill="none" xmlns="http://www.w3.org/2000/svg">
<path d="M14.0657 2.50064C8.79153 2.50578 6.06263 2.60014 4.33139 4.33139C2.60014 6.06263 2.50578 8.79153 2.50064 14.0657H8.64408C8.20526 13.5176 7.87737 12.8711 7.69858 12.1559C7.0256 9.46397 9.46397 7.0256 12.1559 7.69858C12.8711 7.87737 13.5176 8.20526 14.0657 8.64408V2.50064Z" fill="#791A79"/>
<path d="M2.50064 15.9412C2.50578 21.2154 2.60014 23.9443 4.33139 25.6756C6.06263 27.4068 8.79153 27.5012 14.0657 27.5063V17.6587C13.091 19.6057 11.0775 20.9425 8.75191 20.9425C8.23402 20.9425 7.81418 20.5226 7.81418 20.0047C7.81418 19.4868 8.23402 19.067 8.75191 19.067C10.6734 19.067 12.2834 17.7334 12.7067 15.9412H2.50064Z" fill="#791A79"/>
<path d="M15.9412 27.5063C21.2154 27.5012 23.9443 27.4068 25.6756 25.6756C27.4068 23.9443 27.5012 21.2154 27.5063 15.9412H17.3003C17.7236 17.7334 19.3336 19.067 21.2551 19.067C21.7729 19.067 22.1928 19.4868 22.1928 20.0047C22.1928 20.5226 21.7729 20.9425 21.2551 20.9425C18.9294 20.9425 16.916 19.6057 15.9412 17.6587V27.5063Z" fill="#791A79"/>
<path d="M27.5063 14.0657C27.5012 8.79153 27.4068 6.06263 25.6756 4.33139C23.9443 2.60014 21.2154 2.50578 15.9412 2.50064V8.64408C16.4894 8.20526 17.1359 7.87737 17.8511 7.69858C20.543 7.0256 22.9814 9.46397 22.3084 12.1559C22.1296 12.8711 21.8017 13.5176 21.3629 14.0657H27.5063Z" fill="#791A79"/>
<path d="M11.701 9.51806C13.0908 9.86549 14.0657 11.1142 14.0657 12.5467V14.0657H12.5467C11.1142 14.0657 9.86549 13.0908 9.51806 11.701C9.18846 10.3827 10.3827 9.18846 11.701 9.51806Z" fill="#791A79"/>
<path d="M15.9412 12.5467V14.0657H17.4603C18.8928 14.0657 20.1415 13.0908 20.4889 11.701C20.8185 10.3827 19.6243 9.18846 18.3059 9.51806C16.9162 9.86549 15.9412 11.1142 15.9412 12.5467Z" fill="#791A79"/>
</svg>
