<svg width="30" height="30" viewBox="0 0 30 30" fill="none" xmlns="http://www.w3.org/2000/svg">
<path fill-rule="evenodd" clip-rule="evenodd" d="M12.4969 5.00125H17.5106C22.2376 5.00125 24.6011 5.00125 26.0696 6.46609C27.0807 7.47466 27.3956 8.90647 27.4937 11.2397C27.5131 11.7024 27.5229 11.9337 27.4365 12.0881C27.3501 12.2424 27.0051 12.435 26.3153 12.8203C25.5491 13.2481 25.0312 14.0656 25.0312 15.0038C25.0312 15.9419 25.5491 16.7594 26.3153 17.1872C27.0051 17.5725 27.3501 17.7651 27.4365 17.9195C27.5229 18.0738 27.5131 18.3052 27.4937 18.7679C27.3956 21.1011 27.0807 22.5329 26.0696 23.5414C24.6011 25.0063 22.2376 25.0063 17.5106 25.0063H12.4969C7.76993 25.0063 5.40644 25.0063 3.93796 23.5414C2.92687 22.5329 2.61194 21.1011 2.51385 18.7679C2.4944 18.3052 2.48467 18.0738 2.57108 17.9195C2.65748 17.7651 3.00242 17.5725 3.69228 17.1872C4.45844 16.7594 4.97633 15.9419 4.97633 15.0038C4.97633 14.0656 4.45844 13.2481 3.69228 12.8203C3.00241 12.435 2.65748 12.2424 2.57108 12.0881C2.48467 11.9337 2.4944 11.7024 2.51385 11.2397C2.61194 8.90647 2.92687 7.47466 3.93796 6.46609C5.40644 5.00125 7.76993 5.00125 12.4969 5.00125ZM19.4397 10.5897C19.8068 10.9559 19.8068 11.5497 19.4397 11.9159L11.9191 19.4178C11.552 19.784 10.9568 19.784 10.5896 19.4178C10.2225 19.0516 10.2225 18.4578 10.5896 18.0916L18.1102 10.5897C18.4773 10.2235 19.0726 10.2235 19.4397 10.5897ZM18.1482 19.3799C18.8405 19.3799 19.4017 18.8201 19.4017 18.1295C19.4017 17.439 18.8405 16.8792 18.1482 16.8792C17.456 16.8792 16.8948 17.439 16.8948 18.1295C16.8948 18.8201 17.456 19.3799 18.1482 19.3799ZM11.8811 13.1283C12.5733 13.1283 13.1345 12.5685 13.1345 11.878C13.1345 11.1874 12.5733 10.6277 11.8811 10.6277C11.1888 10.6277 10.6277 11.1874 10.6277 11.878C10.6277 12.5685 11.1888 13.1283 11.8811 13.1283Z" fill="#791A79"/>
</svg>
